<?xml version="1.0"?>
<svg xmlns="http://www.w3.org/2000/svg" xmlns:xlink="http://www.w3.org/1999/xlink" version="1.1" id="Layer_1" x="0px" y="0px" viewBox="0 0 504.439 504.439" style="enable-background:new 0 0 504.439 504.439;" xml:space="preserve" width="512px" height="512px" class=""><g><g>
	<g>
		<g>
			<path d="M222.843,282.086c-4.787,0-8.67,3.883-8.67,8.67c0,4.779,3.883,8.661,8.67,8.661c4.787,0,8.67-3.883,8.67-8.661     C231.513,285.969,227.63,282.086,222.843,282.086z" data-original="#000000" class="active-path" data-old_color="#000000" fill="#FFFEFE"/>
			<path d="M265.51,282.086c-4.787,0-8.67,3.883-8.67,8.67c0,4.779,3.883,8.661,8.67,8.661c4.787,0,8.67-3.883,8.67-8.661     C274.179,285.969,270.297,282.086,265.51,282.086z" data-original="#000000" class="active-path" data-old_color="#000000" fill="#FFFEFE"/>
			<path d="M308.176,282.086c-4.787,0-8.67,3.883-8.67,8.67c0,4.779,3.883,8.661,8.67,8.661c4.787,0,8.67-3.883,8.67-8.661     C316.846,285.969,312.963,282.086,308.176,282.086z" data-original="#000000" class="active-path" data-old_color="#000000" fill="#FFFEFE"/>
			<path d="M461.773,316.22h-76.8v-28.262c0-22.059-17.937-40.004-39.996-40.004h-70.938v-20.326l72.67-36.335     c18.398-9.199,29.901-26.957,30.771-47.505c0.879-20.548-9.079-39.228-26.633-49.954l-80.888-49.434     c-0.239-0.145-0.512-0.205-0.759-0.333c-0.247-0.111-0.478-0.222-0.734-0.316c-0.93-0.35-1.894-0.572-2.876-0.58     c-0.026,0-0.051-0.017-0.085-0.017c-0.102,0-0.196,0.06-0.299,0.06c-0.87,0.034-1.732,0.222-2.569,0.521     c-0.265,0.094-0.512,0.179-0.759,0.299c-0.179,0.085-0.375,0.119-0.546,0.213c-0.683,0.384-1.297,0.853-1.835,1.391     c-0.043,0.034-0.06,0.094-0.102,0.137c-0.64,0.657-1.135,1.434-1.527,2.261c-0.111,0.23-0.205,0.461-0.299,0.708     c-0.35,0.939-0.597,1.911-0.597,2.944v170.667v25.6h-71.253l-85.333,68.267H0l1.024,9.446c0.051,0.435,1.707,14.413,7.27,33.22     h299.878c4.719,0,8.533,3.814,8.533,8.533s-3.814,8.533-8.533,8.533H14.063c3.191,8.346,7.142,17.05,11.955,25.6h316.288     c4.719,0,8.533,3.814,8.533,8.533c0,4.719-3.814,8.533-8.533,8.533H37.12c17.946,23.723,44.442,42.667,83.319,42.667h291.43     l-1.143-9.549c-0.026-0.213-2.15-21.325,10.598-35.686c8.542-9.626,22.153-14.498,40.448-14.498     c23.526,0,42.667-19.14,42.667-42.667C504.439,335.36,485.299,316.22,461.773,316.22z M367.906,316.22H127.701l64-51.2h153.276     c12.638,0,22.929,10.291,22.929,22.938V316.22z" data-original="#000000" class="active-path" data-old_color="#000000" fill="#FFFEFE"/>
		</g>
	</g>
</g></g> </svg>
