<?xml version="1.0"?>
<svg xmlns="http://www.w3.org/2000/svg" xmlns:xlink="http://www.w3.org/1999/xlink" version="1.1" id="Layer_1" x="0px" y="0px" viewBox="0 0 512 512" style="enable-background:new 0 0 512 512;" xml:space="preserve" width="512px" height="512px"><g><g>
	<g>
		<path d="M425.354,197.563c-1.854-3.417-5.458-5.552-9.354-5.552H298.667V10.684c0-4.729-3.125-8.896-7.667-10.239    c-4.458-1.365-9.417,0.49-11.979,4.469l-192,298.656c-2.104,3.281-2.25,7.458-0.375,10.885c1.854,3.417,5.458,5.534,9.354,5.534    h117.333v181.345c0,4.729,3.125,8.896,7.667,10.239c0.979,0.292,2,0.427,3,0.427c3.563,0,6.979-1.792,8.979-4.896l192-298.656    C427.083,205.167,427.229,200.99,425.354,197.563z" data-original="#000000" class="active-path" data-old_color="#000000" fill="#6E6C6C"/>
	</g>
</g></g> </svg>
